<svg width="25" height="24" viewBox="0 0 25 24" fill="none" xmlns="http://www.w3.org/2000/svg">
<path d="M3.77759 20.737L5.03022 16.0794C4.02 14.2651 3.69905 12.1479 4.12625 10.1163C4.55345 8.08479 5.70015 6.27518 7.35592 5.01958C9.0117 3.76398 11.0655 3.1466 13.1404 3.28073C15.2153 3.41487 17.1722 4.29152 18.652 5.74983C20.1317 7.20813 21.0351 9.15026 21.1963 11.2198C21.3575 13.2894 20.7657 15.3476 19.5295 17.0168C18.2934 18.6859 16.4958 19.854 14.4665 20.3068C12.4373 20.7595 10.3126 20.4665 8.48234 19.4815L3.77759 20.737ZM8.7092 17.7386L9.00016 17.911C10.3259 18.6954 11.8743 19.0201 13.4041 18.8343C14.9339 18.6485 16.3592 17.9627 17.4579 16.8837C18.5565 15.8048 19.2668 14.3933 19.478 12.8693C19.6893 11.3453 19.3896 9.79429 18.6257 8.45805C17.8618 7.12181 16.6766 6.07538 15.2548 5.48182C13.833 4.88826 12.2545 4.78092 10.7652 5.17652C9.27592 5.57213 7.95955 6.44845 7.02123 7.66894C6.0829 8.88943 5.57534 10.3855 5.57763 11.9241C5.57638 13.1998 5.92977 14.4508 6.59847 15.5379L6.78094 15.8382L6.08065 18.4378L8.7092 17.7386Z" fill="white"/>
<path fill-rule="evenodd" clip-rule="evenodd" d="M15.771 13.1199C15.6005 12.9826 15.4008 12.8859 15.1871 12.8373C14.9734 12.7887 14.7515 12.7894 14.5381 12.8393C14.2176 12.9722 14.0105 13.4744 13.8033 13.7255C13.7597 13.7857 13.6955 13.8279 13.6228 13.8443C13.5502 13.8606 13.4741 13.8499 13.4088 13.8142C12.2352 13.3553 11.2516 12.5138 10.6175 11.4263C10.5634 11.3584 10.5378 11.2723 10.5461 11.1859C10.5544 11.0996 10.5959 11.0199 10.6619 10.9635C10.8929 10.7352 11.0625 10.4524 11.1551 10.1413C11.1756 9.79811 11.0969 9.4563 10.9282 9.15658C10.7978 8.73639 10.5497 8.36225 10.2131 8.07835C10.0395 8.0004 9.84705 7.97427 9.65891 8.0031C9.47077 8.03193 9.29501 8.11449 9.15282 8.24082C8.90598 8.45344 8.71005 8.71862 8.57947 9.01685C8.44888 9.31507 8.38697 9.63875 8.39829 9.96402C8.39905 10.1467 8.42224 10.3286 8.46733 10.5056C8.58184 10.9309 8.75795 11.3373 8.99008 11.7118C9.15756 11.9987 9.34029 12.2765 9.53749 12.5439C10.1784 13.4222 10.984 14.168 11.9096 14.7398C12.3741 15.0303 12.8705 15.2666 13.3891 15.4438C13.9278 15.6876 14.5225 15.7812 15.1102 15.7146C15.445 15.664 15.7623 15.532 16.034 15.3303C16.3058 15.1285 16.5237 14.8632 16.6686 14.5576C16.7537 14.373 16.7796 14.1666 16.7426 13.9668C16.6538 13.5581 16.1064 13.3169 15.771 13.1199Z" fill="white"/>
</svg>
